<svg width="32" height="32" viewBox="0 0 32 32" fill="none" xmlns="http://www.w3.org/2000/svg">
<g clip-path="url(#clip0_291_866)">
<g filter="url(#filter0_d_291_866)">
<path d="M23.4838 20.6882C25.4204 18.0456 26.2878 14.7692 25.9125 11.5145C25.5371 8.25982 23.9467 5.26688 21.4594 3.13446C18.9721 1.00204 15.7713 -0.112592 12.4975 0.0135544C9.22369 0.139701 6.11821 1.49733 3.80238 3.81482C1.48655 6.13231 0.131144 9.23875 0.00733994 12.5127C-0.116464 15.7866 1.00046 18.9865 3.13466 21.4723C5.26886 23.9581 8.26293 25.5463 11.5179 25.9194C14.7728 26.2924 18.0486 25.4227 20.6898 23.4842H20.6878C20.7478 23.5642 20.8118 23.6402 20.8838 23.7142L28.5838 31.4142C28.9589 31.7895 29.4676 32.0004 29.9981 32.0006C30.5287 32.0008 31.0376 31.7902 31.4128 31.4152C31.7881 31.0402 31.9991 30.5314 31.9992 30.0009C31.9994 29.4704 31.7889 28.9615 31.4138 28.5862L23.7138 20.8862C23.6423 20.8138 23.5654 20.749 23.4838 20.6882ZM23.9998 13.0002C23.9998 14.4447 23.7153 15.8751 23.1625 17.2097C22.6097 18.5443 21.7995 19.7569 20.778 20.7784C19.7566 21.7998 18.5439 22.6101 17.2094 23.1629C15.8748 23.7157 14.4444 24.0002 12.9998 24.0002C11.5553 24.0002 10.1249 23.7157 8.79033 23.1629C7.45574 22.6101 6.24311 21.7998 5.22167 20.7784C4.20022 19.7569 3.38997 18.5443 2.83717 17.2097C2.28437 15.8751 1.99984 14.4447 1.99984 13.0002C1.99984 10.0828 3.15877 7.28493 5.22167 5.22203C7.28457 3.15913 10.0825 2.0002 12.9998 2.0002C15.9172 2.0002 18.7151 3.15913 20.778 5.22203C22.8409 7.28493 23.9998 10.0828 23.9998 13.0002Z" fill="white"/>
</g>
</g>
<defs>
<filter id="filter0_d_291_866" x="-4.00195" y="0.00390625" width="40.002" height="39.9971" filterUnits="userSpaceOnUse" color-interpolation-filters="sRGB">
<feFlood flood-opacity="0" result="BackgroundImageFix"/>
<feColorMatrix in="SourceAlpha" type="matrix" values="0 0 0 0 0 0 0 0 0 0 0 0 0 0 0 0 0 0 127 0" result="hardAlpha"/>
<feOffset dy="4"/>
<feGaussianBlur stdDeviation="2"/>
<feComposite in2="hardAlpha" operator="out"/>
<feColorMatrix type="matrix" values="0 0 0 0 0 0 0 0 0 0 0 0 0 0 0 0 0 0 0.25 0"/>
<feBlend mode="normal" in2="BackgroundImageFix" result="effect1_dropShadow_291_866"/>
<feBlend mode="normal" in="SourceGraphic" in2="effect1_dropShadow_291_866" result="shape"/>
</filter>
<clipPath id="clip0_291_866">
<rect width="32" height="32" fill="white"/>
</clipPath>
</defs>
</svg>
